{
	"asset":{
		"generator":"Khronos glTF Blender I/O v4.1.62",
		"version":"2.0"
	},
	"scene":0,
	"scenes":[
		{
			"name":"Scene",
			"nodes":[
				0,
				1,
				2,
				3,
				4,
				5,
				6,
				7
			]
		}
	],
	"nodes":[
		{
			"mesh":0,
			"name":"Box004",
			"rotation":[
				0,
				-0.642787516117096,
				0,
				0.7660444974899292
			],
			"scale":[
				0.015305489301681519,
				0.015305489301681519,
				0.015305489301681519
			],
			"translation":[
				-0.19238466024398804,
				-0.04204902797937393,
				-0.26227498054504395
			]
		},
		{
			"mesh":1,
			"name":"Box001",
			"scale":[
				0.02539999969303608,
				0.02539999969303608,
				0.02539999969303608
			],
			"translation":[
				-0.034001026302576065,
				-0.125,
				0.09221762418746948
			]
		},
		{
			"mesh":2,
			"name":"Box002",
			"rotation":[
				0,
				-0.9396926164627075,
				0,
				0.3420201539993286
			],
			"scale":[
				0.01727272756397724,
				0.02539999969303608,
				0.01727272756397724
			],
			"translation":[
				0.18125398457050323,
				-0.125,
				-0.23109205067157745
			]
		},
		{
			"mesh":3,
			"name":"Box004.001",
			"rotation":[
				0,
				-0.016618022695183754,
				0,
				0.999862015247345
			],
			"scale":[
				0.015305489301681519,
				0.015305489301681519,
				0.015305489301681519
			],
			"translation":[
				0.7279727458953857,
				-0.04204902797937393,
				-0.3239899277687073
			]
		},
		{
			"mesh":4,
			"name":"Box002.001",
			"rotation":[
				0,
				-0.45719993114471436,
				0,
				0.8893639445304871
			],
			"scale":[
				0.01727272756397724,
				0.02539999969303608,
				0.01727272756397724
			],
			"translation":[
				-0.46149343252182007,
				-0.125,
				0.14407382905483246
			]
		},
		{
			"mesh":5,
			"name":"Box004.002",
			"rotation":[
				0,
				-0.4713456630706787,
				0,
				0.8819485902786255
			],
			"scale":[
				0.015305489301681519,
				0.015305489301681519,
				0.015305489301681519
			],
			"translation":[
				0.3254840075969696,
				-0.04204902797937393,
				0.6553991436958313
			]
		},
		{
			"mesh":6,
			"name":"Box004.003",
			"rotation":[
				0,
				-0.84050053358078,
				0,
				0.5418107509613037
			],
			"scale":[
				0.015305488370358944,
				0.015305489301681519,
				0.015305488370358944
			],
			"translation":[
				-0.6431719660758972,
				-0.04204902797937393,
				0.5749014019966125
			]
		},
		{
			"mesh":7,
			"name":"Box002.002",
			"rotation":[
				0,
				0.48289307951927185,
				0,
				0.8756793737411499
			],
			"scale":[
				0.01727272756397724,
				0.02539999969303608,
				0.01727272756397724
			],
			"translation":[
				0.7577956318855286,
				-0.125,
				0.47786110639572144
			]
		}
	],
	"materials":[
		{
			"doubleSided":true,
			"name":"\u30de\u30c6\u30ea\u30a2\u30eb",
			"pbrMetallicRoughness":{
				"baseColorTexture":{
					"index":0
				},
				"metallicFactor":0,
				"roughnessFactor":0.5
			}
		}
	],
	"meshes":[
		{
			"name":"\u30e1\u30c3\u30b7\u30e5.001",
			"primitives":[
				{
					"attributes":{
						"POSITION":0,
						"NORMAL":1,
						"TEXCOORD_0":2
					},
					"indices":3,
					"material":0
				}
			]
		},
		{
			"name":"\u30e1\u30c3\u30b7\u30e5.005",
			"primitives":[
				{
					"attributes":{
						"POSITION":4,
						"NORMAL":5,
						"TEXCOORD_0":6
					},
					"indices":7,
					"material":0
				}
			]
		},
		{
			"name":"\u30e1\u30c3\u30b7\u30e5.006",
			"primitives":[
				{
					"attributes":{
						"POSITION":8,
						"NORMAL":9,
						"TEXCOORD_0":10
					},
					"indices":7,
					"material":0
				}
			]
		},
		{
			"name":"\u30e1\u30c3\u30b7\u30e5.007",
			"primitives":[
				{
					"attributes":{
						"POSITION":11,
						"NORMAL":12,
						"TEXCOORD_0":13
					},
					"indices":3,
					"material":0
				}
			]
		},
		{
			"name":"\u30e1\u30c3\u30b7\u30e5.008",
			"primitives":[
				{
					"attributes":{
						"POSITION":14,
						"NORMAL":15,
						"TEXCOORD_0":16
					},
					"indices":7,
					"material":0
				}
			]
		},
		{
			"name":"\u30e1\u30c3\u30b7\u30e5.009",
			"primitives":[
				{
					"attributes":{
						"POSITION":17,
						"NORMAL":18,
						"TEXCOORD_0":19
					},
					"indices":3,
					"material":0
				}
			]
		},
		{
			"name":"\u30e1\u30c3\u30b7\u30e5.010",
			"primitives":[
				{
					"attributes":{
						"POSITION":20,
						"NORMAL":21,
						"TEXCOORD_0":22
					},
					"indices":3,
					"material":0
				}
			]
		},
		{
			"name":"\u30e1\u30c3\u30b7\u30e5.011",
			"primitives":[
				{
					"attributes":{
						"POSITION":23,
						"NORMAL":24,
						"TEXCOORD_0":25
					},
					"indices":7,
					"material":0
				}
			]
		}
	],
	"textures":[
		{
			"sampler":0,
			"source":0
		}
	],
	"images":[
		{
			"mimeType":"image/png",
			"name":"Concrete",
			"uri":"Concrete.png"
		}
	],
	"accessors":[
		{
			"bufferView":0,
			"componentType":5126,
			"count":942,
			"max":[
				8.509638786315918,
				9.197290420532227,
				43.25079345703125
			],
			"min":[
				-29.747051239013672,
				-4.928215980529785,
				-6.105413913726807
			],
			"type":"VEC3"
		},
		{
			"bufferView":1,
			"componentType":5126,
			"count":942,
			"type":"VEC3"
		},
		{
			"bufferView":2,
			"componentType":5126,
			"count":942,
			"type":"VEC2"
		},
		{
			"bufferView":3,
			"componentType":5123,
			"count":4176,
			"type":"SCALAR"
		},
		{
			"bufferView":4,
			"componentType":5126,
			"count":371,
			"max":[
				8.15174674987793,
				8.856411933898926,
				9.760544776916504
			],
			"min":[
				-7.257119178771973,
				0.984251081943512,
				-8.758781433105469
			],
			"type":"VEC3"
		},
		{
			"bufferView":5,
			"componentType":5126,
			"count":371,
			"type":"VEC3"
		},
		{
			"bufferView":6,
			"componentType":5126,
			"count":371,
			"type":"VEC2"
		},
		{
			"bufferView":7,
			"componentType":5123,
			"count":1764,
			"type":"SCALAR"
		},
		{
			"bufferView":8,
			"componentType":5126,
			"count":371,
			"max":[
				9.490689277648926,
				9.826360702514648,
				10.267032623291016
			],
			"min":[
				-8.201109886169434,
				0.017854690551757812,
				-8.955650329589844
			],
			"type":"VEC3"
		},
		{
			"bufferView":9,
			"componentType":5126,
			"count":371,
			"type":"VEC3"
		},
		{
			"bufferView":10,
			"componentType":5126,
			"count":371,
			"type":"VEC2"
		},
		{
			"bufferView":11,
			"componentType":5126,
			"count":942,
			"max":[
				8.509638786315918,
				9.197290420532227,
				43.25079345703125
			],
			"min":[
				-29.747051239013672,
				-4.928215980529785,
				-6.105413913726807
			],
			"type":"VEC3"
		},
		{
			"bufferView":12,
			"componentType":5126,
			"count":942,
			"type":"VEC3"
		},
		{
			"bufferView":13,
			"componentType":5126,
			"count":942,
			"type":"VEC2"
		},
		{
			"bufferView":14,
			"componentType":5126,
			"count":371,
			"max":[
				9.490689277648926,
				9.826360702514648,
				10.267032623291016
			],
			"min":[
				-8.201109886169434,
				0.017854690551757812,
				-8.955650329589844
			],
			"type":"VEC3"
		},
		{
			"bufferView":15,
			"componentType":5126,
			"count":371,
			"type":"VEC3"
		},
		{
			"bufferView":16,
			"componentType":5126,
			"count":371,
			"type":"VEC2"
		},
		{
			"bufferView":17,
			"componentType":5126,
			"count":942,
			"max":[
				8.509638786315918,
				9.197290420532227,
				43.25079345703125
			],
			"min":[
				-29.747051239013672,
				-4.928215980529785,
				-6.105413913726807
			],
			"type":"VEC3"
		},
		{
			"bufferView":18,
			"componentType":5126,
			"count":942,
			"type":"VEC3"
		},
		{
			"bufferView":19,
			"componentType":5126,
			"count":942,
			"type":"VEC2"
		},
		{
			"bufferView":20,
			"componentType":5126,
			"count":942,
			"max":[
				8.509638786315918,
				9.197290420532227,
				43.25079345703125
			],
			"min":[
				-29.747051239013672,
				-4.928215980529785,
				-6.105413913726807
			],
			"type":"VEC3"
		},
		{
			"bufferView":21,
			"componentType":5126,
			"count":942,
			"type":"VEC3"
		},
		{
			"bufferView":22,
			"componentType":5126,
			"count":942,
			"type":"VEC2"
		},
		{
			"bufferView":23,
			"componentType":5126,
			"count":371,
			"max":[
				9.490689277648926,
				9.826360702514648,
				10.267032623291016
			],
			"min":[
				-8.201109886169434,
				0.017854690551757812,
				-8.955650329589844
			],
			"type":"VEC3"
		},
		{
			"bufferView":24,
			"componentType":5126,
			"count":371,
			"type":"VEC3"
		},
		{
			"bufferView":25,
			"componentType":5126,
			"count":371,
			"type":"VEC2"
		}
	],
	"bufferViews":[
		{
			"buffer":0,
			"byteLength":11304,
			"byteOffset":0,
			"target":34962
		},
		{
			"buffer":0,
			"byteLength":11304,
			"byteOffset":11304,
			"target":34962
		},
		{
			"buffer":0,
			"byteLength":7536,
			"byteOffset":22608,
			"target":34962
		},
		{
			"buffer":0,
			"byteLength":8352,
			"byteOffset":30144,
			"target":34963
		},
		{
			"buffer":0,
			"byteLength":4452,
			"byteOffset":38496,
			"target":34962
		},
		{
			"buffer":0,
			"byteLength":4452,
			"byteOffset":42948,
			"target":34962
		},
		{
			"buffer":0,
			"byteLength":2968,
			"byteOffset":47400,
			"target":34962
		},
		{
			"buffer":0,
			"byteLength":3528,
			"byteOffset":50368,
			"target":34963
		},
		{
			"buffer":0,
			"byteLength":4452,
			"byteOffset":53896,
			"target":34962
		},
		{
			"buffer":0,
			"byteLength":4452,
			"byteOffset":58348,
			"target":34962
		},
		{
			"buffer":0,
			"byteLength":2968,
			"byteOffset":62800,
			"target":34962
		},
		{
			"buffer":0,
			"byteLength":11304,
			"byteOffset":65768,
			"target":34962
		},
		{
			"buffer":0,
			"byteLength":11304,
			"byteOffset":77072,
			"target":34962
		},
		{
			"buffer":0,
			"byteLength":7536,
			"byteOffset":88376,
			"target":34962
		},
		{
			"buffer":0,
			"byteLength":4452,
			"byteOffset":95912,
			"target":34962
		},
		{
			"buffer":0,
			"byteLength":4452,
			"byteOffset":100364,
			"target":34962
		},
		{
			"buffer":0,
			"byteLength":2968,
			"byteOffset":104816,
			"target":34962
		},
		{
			"buffer":0,
			"byteLength":11304,
			"byteOffset":107784,
			"target":34962
		},
		{
			"buffer":0,
			"byteLength":11304,
			"byteOffset":119088,
			"target":34962
		},
		{
			"buffer":0,
			"byteLength":7536,
			"byteOffset":130392,
			"target":34962
		},
		{
			"buffer":0,
			"byteLength":11304,
			"byteOffset":137928,
			"target":34962
		},
		{
			"buffer":0,
			"byteLength":11304,
			"byteOffset":149232,
			"target":34962
		},
		{
			"buffer":0,
			"byteLength":7536,
			"byteOffset":160536,
			"target":34962
		},
		{
			"buffer":0,
			"byteLength":4452,
			"byteOffset":168072,
			"target":34962
		},
		{
			"buffer":0,
			"byteLength":4452,
			"byteOffset":172524,
			"target":34962
		},
		{
			"buffer":0,
			"byteLength":2968,
			"byteOffset":176976,
			"target":34962
		}
	],
	"samplers":[
		{
			"magFilter":9729,
			"minFilter":9987
		}
	],
	"buffers":[
		{
			"byteLength":179944,
			"uri":"rubble.bin"
		}
	]
}
